<?xml version="1.0" encoding="UTF-8"?>
<svg id="Calque_1" data-name="Calque 1" xmlns="http://www.w3.org/2000/svg" viewBox="0 0 140.93 132.67">
  <defs>
    <style>
      .cls-1 {
        fill: none;
        stroke: #000;
        stroke-miterlimit: 10;
      }
    </style>
  </defs>
  <path class="cls-1" d="M116.89,31.64h23.55v100.5h-23.55V31.64Z"/>
  <path class="cls-1" d="M63.08,54.79v77.38h-24.2V54.79h24.2Z"/>
  <path class="cls-1" d="M78.07,70.61h23.88v61.56h-23.88v-61.56Z"/>
  <path class="cls-1" d="M14.41,75.82c-.45,.12-.9,.2-1.37,.23,.21-.02,.41-.05,.62-.08,.25-.04,.5-.09,.75-.15Z"/>
  <path class="cls-1" d="M18.57,73.25c-.82,1.1-2.11,1.93-3.55,2.39,1.4-.48,2.61-1.32,3.55-2.39Z"/>
  <path class="cls-1" d="M93.82,58.94c-.55,.4-1.16,.73-1.84,.96,.66-.25,1.28-.57,1.84-.96Z"/>
  <path class="cls-1" d="M.5,85.64H24.22v46.47H.5v-46.47Z"/>
  <path class="cls-1" d="M129.96,16.91c-1.25,.2-2.49,.1-3.63-.24-2.18,.57-3.71,2.03-5.33,3.86-7.26,8.25-14.77,16.29-21.91,24.64-1.06,1.24-1.73,3.08-2,4.86,.07,.27,.13,.55,.17,.83,.52,3.23-.92,6.32-3.44,8.08-.56,.39-1.18,.71-1.84,.96-.22,.08-.45,.16-.68,.22-.03,0-.05,.01-.08,.02-.25,.06-.51,.12-.77,.16-.01,0-.03,0-.04,0-.17,.03-.34,.05-.51,.06-4.31,.43-8.26-2.58-8.94-6.91-.03-.19-.05-.38-.07-.57-.77-1.16-1.84-2.22-2.96-2.8-4.4-2.31-9.06-4.14-13.62-6.17-2.48-1.1-4.93-2.63-7.5-2.26-1.18,1.19-2.74,2.02-4.53,2.31-1.79,.29-3.54-.03-5.05-.8-3.69,.77-6.25,4.1-9.21,6.49-4.26,3.47-8.38,7.12-12.67,10.54-2.05,1.64-4.02,3.11-5.07,5.28,.1,.33,.18,.68,.24,1.04,.39,2.49-.37,4.9-1.91,6.68,0,.02-.02,.03-.04,.05-.94,1.07-2.15,1.91-3.55,2.39-.2,.06-.4,.13-.61,.18-.25,.06-.5,.11-.75,.15-.21,.03-.41,.06-.62,.08-.01-.01-.03,0-.04,0-.47,.04-.94,.03-1.39-.01-.21-.02-.42-.05-.63-.09-.09-.01-.18-.03-.27-.05-.09-.01-.17-.03-.26-.06-.21-.05-.41-.11-.61-.19-.04-.01-.08-.03-.12-.04-2.8-.94-5.01-3.36-5.51-6.49-.72-4.51,2.35-8.74,6.85-9.45,2.26-.36,4.45,.23,6.17,1.49,1.55-.51,2.8-1.61,4.18-2.77,5.47-4.62,10.94-9.23,16.47-13.79,2.17-1.79,4.38-3.31,5.41-5.8-.21-.53-.37-1.09-.46-1.68-.72-4.51,2.35-8.74,6.85-9.45,4.51-.72,8.74,2.35,9.45,6.85,.03,.22,.06,.43,.08,.65h0c.93,1.57,2.26,3.04,3.73,3.86,3.91,2.17,8.17,3.72,12.33,5.42,2.73,1.13,5.3,1.67,8.18,1.7,1.16-1.1,2.66-1.87,4.36-2.14,1.62-.26,3.2-.03,4.6,.59,3.62-1.7,5.83-4.62,8.47-7.45,6.24-6.71,12.38-13.52,18.25-20.55,1.01-1.22,1.64-3.04,1.86-4.8-.22-.55-.38-1.14-.48-1.75-.71-4.5,2.35-8.73,6.86-9.45,4.5-.71,8.73,2.35,9.45,6.86,.71,4.5-2.35,8.73-6.86,9.45Z"/>
</svg>