<?xml version="1.0" encoding="UTF-8"?>
<svg id="Calque_1" data-name="Calque 1" xmlns="http://www.w3.org/2000/svg" viewBox="0 0 72.65 72.77">
  <defs>
    <style>
      .cls-1 {
        fill: none;
        stroke: #000;
        stroke-miterlimit: 10;
      }
    </style>
  </defs>
  <path class="cls-1" d="M57.61,65.24c-15.11,11.22-36.27,8.77-48.57-5.6C-3.14,45.41-2.17,23.83,11.2,10.77,24.29-2.03,44.08-2.49,57.09,7.3c.61,.46,.65,1.37,.05,1.85-1.49,1.2-2.94,2.42-4.55,3.37-.67,.4-2.11,.01-2.96-.46-16.08-8.72-36.12,.21-40.22,17.97-3.43,14.85,5.81,29.92,20.38,33.25,15.21,3.48,30.25-5.7,33.35-20.74,.78-3.77,.15-7.83,.28-11.75,.03-1.11,.2-2.39,.78-3.3,.99-1.55,2.14-2.99,3.3-4.47,.54-.68,1.61-.56,1.97,.22,5.12,11.04,3.82,30.35-11.86,42Z"/>
  <path class="cls-1" d="M68.45,12.65c-6.94,8.3-13.93,16.57-20.91,24.84-1.08,1.28-1.83,2.43-1.73,4.39,.27,5.37-4.37,9.74-9.73,9.59-5.28-.15-9.52-4.59-9.34-9.8,.18-5.36,4.7-9.58,10.24-8.96,.23,.03,.47-.02,.67-.12,.82-.43,1.7-.8,2.39-1.38,8.5-7.12,16.93-14.33,25.48-21.39,1.05-.87,3.37-1.83,3.92-1.36,1.76,1.5,.02,2.97-.99,4.19Z"/>
  <path class="cls-1" d="M61.47,36.32v.1c0,.35-.16,.68-.44,.9-.89,.7-1.83,1.65-2.61,1.54-.75-.11-1.4-.96-2.05-1.76-.36-.43-.36-1.05,0-1.48,.65-.79,1.3-1.64,2.06-1.75,.78-.11,1.71,.84,2.6,1.54,.28,.22,.44,.55,.44,.91Z"/>
  <path class="cls-1" d="M17.32,36.27c.01,.37-.14,.71-.42,.94-.85,.69-1.67,1.53-2.62,1.72-1.61,.33-2.63-.83-2.68-2.49-.05-1.67,.91-2.88,2.53-2.65,.96,.14,1.83,.94,2.72,1.59,.29,.21,.46,.54,.47,.89Z"/>
  <path class="cls-1" d="M39.37,14.09v.03c.02,.35-.12,.69-.39,.92-.87,.74-1.75,1.73-2.55,1.67-.75-.07-1.43-.89-2.12-1.65-.37-.41-.4-1.03-.07-1.48,.63-.83,1.24-1.73,1.98-1.86,.79-.14,1.77,.81,2.69,1.5,.28,.2,.45,.53,.46,.87Z"/>
  <path class="cls-1" d="M27.75,17.1c.09,.77-.89,1.67-1.61,2.54-.23,.27-.57,.41-.92,.4h-.1c-.35,0-.68-.18-.89-.47-.66-.91-1.58-1.88-1.44-2.64,.14-.76,.99-1.39,1.79-2.02,.45-.36,1.09-.34,1.51,.05,.76,.69,1.57,1.37,1.66,2.14Z"/>
  <path class="cls-1" d="M19.5,25.3c-.13,.97-1.5,2.27-2.55,2.52-1.61,.39-2.77-.95-2.52-2.52,.15-.94,.97-1.77,1.63-2.63,.22-.28,.56-.45,.92-.44h.05c.35,0,.69,.16,.9,.43,.71,.9,1.67,1.84,1.57,2.64Z"/>
  <path class="cls-1" d="M49.82,17.2c.06,.78-.97,1.63-1.74,2.47-.24,.26-.58,.39-.93,.36h-.1c-.36-.03-.68-.22-.88-.51-.61-.94-1.47-1.94-1.3-2.69,.18-.76,1.05-1.35,1.88-1.95,.46-.33,1.09-.29,1.5,.11,.73,.72,1.52,1.44,1.57,2.21Z"/>
</svg>