<?xml version="1.0" encoding="UTF-8"?>
<svg id="Calque_1" data-name="Calque 1" xmlns="http://www.w3.org/2000/svg" viewBox="0 0 91.49 88.29">
  <defs>
    <style>
      .cls-1 {
        fill: none;
        stroke: #000;
        stroke-miterlimit: 10;
      }
    </style>
  </defs>
  <path class="cls-1" d="M47.46,78.38c19.71-1.1,30.77-14.45,33.38-27.85,2.84-14.55-4.52-29.62-17.81-36.48-13.66-7.05-30.19-4.28-40.78,6.84-9.51,9.98-12.28,26.46-5.91,37.37,3.54-3.78,6.99-7.46,10.44-11.13,.26,.14,.52,.28,.78,.41,0,4.25,0,8.49,0,12.74s0,8.38,0,12.81H1.19c2.05-2.08,3.79-4.03,5.72-5.76,1.46-1.31,1.81-2.35,.88-4.3C-5.04,35.96,11.97,4.94,41.78,.89c26.98-3.66,51.01,18.96,49.11,46.23-1.55,22.29-19.43,39.71-41.72,40.66-.49,.02-.98,0-1.7,0v-9.4Z"/>
  <path class="cls-1" d="M61.56,54.09c-2.41,2.43-4.51,4.54-7.18,7.23-3.92-4.1-7.77-8.1-11.57-12.15-.36-.38-.53-1.08-.53-1.63-.03-7.39-.02-14.77-.02-22.41h9.69c0,5.4,.13,10.76-.06,16.12-.09,2.53,.63,4.34,2.54,5.99,2.42,2.08,4.61,4.41,7.13,6.86Z"/>
</svg>