<?xml version="1.0" encoding="UTF-8"?>
<svg id="Calque_1" data-name="Calque 1" xmlns="http://www.w3.org/2000/svg" viewBox="0 0 75.4 60.87">
  <defs>
    <style>
      .cls-1 {
        fill: none;
        stroke: #000;
        stroke-miterlimit: 10;
      }
    </style>
  </defs>
  <path class="cls-1" d="M73,36.15h-6.48v18.8c0,2.99-2.43,5.42-5.43,5.42h-14.91c-.93,0-1.51-1.05-.97-1.81,.5-.71,.79-1.57,.79-2.5v-14.57c0-2.4-1.94-4.34-4.33-4.34h-7.93c-2.4,0-4.34,1.94-4.34,4.34v14.57c0,.85,.24,1.64,.67,2.3,.55,.87-.04,2.01-1.08,2.01H14.31c-3,0-5.43-2.43-5.43-5.42v-18.8H2.4c-1.69,0-2.54-2.05-1.33-3.24l7.81-7.73L30.61,3.68l.45-.45c3.68-3.64,9.6-3.64,13.28,0l.45,.45,21.73,21.49,7.82,7.74c1.2,1.19,.36,3.24-1.34,3.24Z"/>
</svg>