<?xml version="1.0" encoding="UTF-8"?>
<svg id="Calque_1" data-name="Calque 1" xmlns="http://www.w3.org/2000/svg" viewBox="0 0 70.28 70.28">
  <defs>
    <style>
      .cls-1 {
        fill: none;
        stroke: #000;
        stroke-miterlimit: 10;
      }
    </style>
  </defs>
  <path class="cls-1" d="M35.14,.5C16.01,.5,.5,16,.5,35.14s15.51,34.64,34.64,34.64,34.64-15.51,34.64-34.64S54.27,.5,35.14,.5Zm4.21,55.16c0,2.31-1.89,4.21-4.21,4.21s-4.21-1.9-4.21-4.21v-22.22c0-2.31,1.89-4.21,4.21-4.21,1.16,0,2.21,.47,2.97,1.24,.77,.76,1.24,1.81,1.24,2.97v22.22Zm-4.21-29.65c-3.38,0-6.13-2.74-6.13-6.13s2.75-6.13,6.13-6.13,6.13,2.75,6.13,6.13-2.75,6.13-6.13,6.13Z"/>
</svg>