<?xml version="1.0" encoding="utf-8"?>
<!-- Generator: Adobe Illustrator 26.5.0, SVG Export Plug-In . SVG Version: 6.00 Build 0)  -->
<svg version="1.1" id="Calque_1" xmlns="http://www.w3.org/2000/svg" xmlns:xlink="http://www.w3.org/1999/xlink" x="0px" y="0px"
	 viewBox="0 0 40.7 54" style="enable-background:new 0 0 40.7 54;" xml:space="preserve">
<style type="text/css">
	.st0{fill:#FFFFFF;stroke:#FFFFFF;stroke-miterlimit:10;}
</style>
<path class="st0" d="M85.1,5.3l-2.3,3.6 M68.4,31.7l-2.3,3.6 M79.6,1.8l-2.3,3.6 M63,28.2l-2.3,3.6 M75.8-0.6L75.2-1 M55.8,28.8
	L55.8,28.8 M70.5,38.6L70.5,38.6L70.5,38.6 M68.4,40.3l-7.1-4.6L60.2,35l-5.7-3.7l-2,11.4c0,0,0.1,0,0.2,0c2.5,0,4.7,1.7,5.2,4.1
	l10.9-6.2L68.4,40.3z M70.5,38.6l-0.7-0.5 M55.8,28.8L55.8,28.8l0.6,0.4 M68.4,40.3l-7.1-4.6L60.2,35l-5.7-3.7l-2,11.4L52.5,43h0.1
	c2.4,0,4.5,1.7,5,4l0.4-0.2l10.9-6.2L68.4,40.3z M75.2-1L55.9,28.8l-1.3,2 M69.4,40.3l1.1-1.7L90.1,8.5 M90.1,8.4L90.1,8.4L89.3,8
	 M89.8,0.6l-1.3-0.8l-5.4-3.5l-0.6-0.4c-2.1-1.3-4.8-0.8-6.2,1.3L75.2-1l0.6,0.4l0.1-0.2c0.6-1,1.9-1.2,2.9-0.6l10,6.5
	c1,0.6,1.2,1.9,0.6,2.9l0.7,0.4l1-1.6C92.5,4.7,91.9,2,89.8,0.6z M68.4,40.3L68.4,40.3l-7.1-4.6L68.4,40.3z M56.3,29.8l-0.4,0.5
	L69.2,39l0.4-0.5L56.3,29.8z M52.6,43L52.6,43l-0.4,1.6c-0.5,2.6,2.2,4.4,4.4,2.9l0.9-0.5C57,44.7,55,43,52.6,43z M85.1,5.3
	l-5.4-3.5l-3.9-2.5L56.4,29.2l13.4,9L89.3,8L85.1,5.3z M63,28.2c0,0-0.1,0-0.2-0.1c-0.4-0.3-0.7-0.8-0.7-1.2c0-0.3,0.1-0.5,0.2-0.8
	L75.5,5.9c0.4-0.6,1.2-0.8,1.9-0.5c0,0,0.1,0.1,0.2,0.1c0.4,0.3,0.7,0.8,0.7,1.2c0,0.3-0.1,0.5-0.2,0.8L64.9,27.7
	C64.5,28.3,63.7,28.5,63,28.2z M83.4,11L70.3,31.2c-0.4,0.6-1.2,0.9-1.9,0.5c0,0-0.1,0-0.1-0.1c-0.4-0.3-0.7-0.8-0.7-1.2
	c0-0.3,0.1-0.5,0.2-0.8L80.9,9.4c0.4-0.6,1.2-0.8,1.9-0.5c0,0,0.1,0.1,0.2,0.1c0.4,0.3,0.7,0.8,0.7,1.2C83.6,10.5,83.5,10.8,83.4,11
	z M56.4,29.2l-0.7,1.1l0.2,0.1L69.2,39l0.4-0.5l0.2-0.3L56.4,29.2z M75.8-0.7L75.8-0.7l3.8,2.5l5.4,3.5L89.3,8l0.1-0.1L75.8-0.7z"/>
</svg>
