<?xml version="1.0" encoding="UTF-8"?>
<svg id="Calque_1" data-name="Calque 1" xmlns="http://www.w3.org/2000/svg" viewBox="0 0 55.81 54.52">
  <defs>
    <style>
      .cls-1 {
        fill: none;
        stroke: #000;
        stroke-miterlimit: 10;
      }
    </style>
  </defs>
  <path class="cls-1" d="M49.09,19.33h-.53V8.19c0-4.25-3.16-7.69-7.06-7.69H13.26c-3.9,0-7.06,3.44-7.06,7.69v11.17c-3.2,.28-5.7,3.2-5.7,6.76v21.12c0,3.75,2.78,6.78,6.22,6.78H49.09c3.44,0,6.22-3.03,6.22-6.78V26.12c0-3.75-2.78-6.79-6.22-6.79Zm-4.95,0H11.26V8.78c0-2.24,1.67-4.05,3.72-4.05h25.44c2.05,0,3.72,1.82,3.72,4.05v10.55Z"/>
</svg>