<?xml version="1.0" encoding="UTF-8"?>
<svg id="Calque_1" data-name="Calque 1" xmlns="http://www.w3.org/2000/svg" viewBox="0 0 88.05 68.65">
  <defs>
    <style>
      .cls-1 {
        fill: none;
        stroke: #000;
        stroke-miterlimit: 10;
      }
    </style>
  </defs>
  <path class="cls-1" d="M59.72,54.51c1.44,.82,1.81,2.71,.81,4.02-2.73,3.55-7.89,9.62-11.29,9.62H12.52c-6.61,0-12.02-5.41-12.02-12.02V12.52C.5,5.91,5.91,.5,12.52,.5H49.92c5.5,0,11.12,3.98,12.12,9.19,.19,1-7.22,3.92-7.22,3.92-.7,0-1.33-.38-1.71-.96-1.25-1.9-3.4-3.16-5.84-3.16H19.41c-4.22,0-9.08-.95-9.67,5.67V50.37c0,4.22,3.45,7.67,7.67,7.67h27.18c2.97,0,5.56-3.8,6.84-6.05,.51-.9,1.64-1.24,2.55-.73,1.57,.87,3.93,2.22,5.75,3.25Z"/>
  <path class="cls-1" d="M86.71,31.44c1.13,1.13,1.12,2.95,0,4.08l-3.74,3.73-10.57,10.57c-1.31,1.31-3.43,1.31-4.73,0l-1.04-1.04c-1.31-1.31-1.31-3.43,0-4.73l6.09-6.09c.15-.15,.04-.4-.17-.4h-30.49c-1.52,0-2.76-1.23-2.76-2.76v-2.66c0-1.52,1.23-2.76,2.76-2.76h30.48c.21,0,.31-.25,.17-.4l-6.18-6.18c-1.25-1.25-1.25-3.29,0-4.54l1.23-1.23c1.25-1.26,3.29-1.26,4.55,0l14.41,14.41Z"/>
</svg>