<?xml version="1.0" encoding="UTF-8"?>
<svg id="Calque_1" data-name="Calque 1" xmlns="http://www.w3.org/2000/svg" viewBox="0 0 45.83 52.01">
  <defs>
    <style>
      .cls-1 {
        fill: #fff;
      }
    </style>
  </defs>
  <path class="cls-1" d="M43.53,5.23h-13.28V2.62c0-1.45-1.17-2.62-2.61-2.62h-9.58c-1.44,0-2.62,1.17-2.62,2.62v2.61H2.3c-1.27,0-2.3,1.03-2.3,2.3v1.28c0,1,.64,1.85,1.54,2.17l42.63,.04c.96-.27,1.66-1.16,1.66-2.21v-1.28c0-1.27-1.03-2.3-2.3-2.3Zm-15.64,0h-10.08v-1.87c0-.5,.4-.9,.9-.9h8.27c.5,0,.91,.41,.91,.91v1.86Z"/>
  <path class="cls-1" d="M39.46,13.66H6.22c-.78,0-1.38,.68-1.29,1.45l3.75,32.54c.29,2.48,2.4,4.36,4.9,4.36h18.42c2.5,0,4.6-1.87,4.9-4.35l3.86-32.54c.09-.78-.52-1.46-1.3-1.46Zm-21.59,31.98c-.91,.15-1.76-.47-1.9-1.37l-4.19-26.48c-.15-.91,.47-1.76,1.37-1.9,.09-.02,.18-.02,.27-.02,.8,0,1.5,.58,1.63,1.4l4.2,26.48c.14,.9-.48,1.75-1.38,1.89Zm6.7-1.57c0,.83-.56,1.59-1.37,1.73-1.03,.18-1.95-.61-1.95-1.63V17.45c0-.83,.57-1.6,1.39-1.73,1.04-.16,1.93,.64,1.93,1.64v26.71Zm9.48-26.28l-4.19,26.48c-.15,.9-1,1.52-1.9,1.37-.91-.14-1.52-.99-1.38-1.89l4.19-26.48c.15-.91,1-1.53,1.9-1.38,.82,.13,1.4,.83,1.4,1.64,0,.09-.01,.17-.02,.26Z"/>
</svg>