<?xml version="1.0" encoding="UTF-8"?>
<svg id="Calque_1" data-name="Calque 1" xmlns="http://www.w3.org/2000/svg" viewBox="0 0 90.3 79.88">
  <defs>
    <style>
      .cls-1 {
        fill: none;
        stroke: #000;
        stroke-miterlimit: 10;
      }
    </style>
  </defs>
  <path class="cls-1" d="M89.02,70.7L50.16,3.4c-2.23-3.86-7.8-3.86-10.02,0L1.28,70.7c-2.23,3.86,.56,8.68,5.01,8.68H84c4.46,0,7.24-4.82,5.02-8.68ZM40.04,30c0-2.82,2.29-5.11,5.11-5.11,1.41,0,2.69,.57,3.61,1.5,.93,.92,1.5,2.2,1.5,3.61v23.27c0,2.82-2.29,5.11-5.11,5.11s-5.11-2.29-5.11-5.11V30Zm5.11,43.89c-3.31,0-5.99-2.68-5.99-5.98s2.68-5.99,5.99-5.99,5.98,2.68,5.98,5.99-2.67,5.98-5.98,5.98Z"/>
</svg>